<svg height="512pt" viewBox="0 0 512 512.0029" width="512pt" xmlns="http://www.w3.org/2000/svg"><path d="m144 8-24 40 8 40.003906 56-24.003906zm0 0" fill="#f7efcd"/><path d="m368 8 24 40-8 40.003906-56-24.003906zm0 0" fill="#f7efcd"/><path d="m296 232-24 16v16h-32v-16l-23.996094-16 16-24 23.996094 16 24-16zm0 0" fill="#493c35"/><path d="m272 176 24 32v24l-16-24-24 16-23.996094-16-16 24v-24l23.996094-32v-24h32zm0 0" fill="#6d6764"/><path d="m256 264v8c0 8.800781-7.199219 16-16 16h-33.839844c-13.359375 0-25.277344-8.238281-29.917968-20.796875l-16.242188-43.199219 56.003906-16v24l24 16v16h15.996094zm0 0" fill="#f7efcd"/><path d="m208 176-48 48-32-48c0-30.925781 25.074219-56 56.003906-56l56 32v24zm0 0" fill="#f7efcd"/><path d="m288 288v8.003906c0 6.636719-2.71875 12.636719-7.039062 16.957032-4.320313 4.320312-10.320313 7.039062-16.960938 7.039062h-15.996094c-13.28125 0-24.003906-10.71875-24.003906-24v-8h16c8.800781 0 16-7.199219 16-16 0 8.800781 7.203125 16 16 16zm0 0" fill="#ff5054"/><path d="m256 40-72 24-40-56 48 32zm0 0" fill="#ddb305"/><path d="m240 88.003906h-56l56 24v16l-56-8c-15.519531 0-29.4375 6.238282-39.597656 16.398438s-16.402344 24.078125-16.402344 39.597656l32 48h-56l-8-48 16-88 72-24 56 6.242188zm0 0" fill="#fdcf00"/><path d="m200 304c0 6.160156 2.320312 11.761719 6.160156 16-17.402344 0-32.257812-12.582031-35.117187-29.75l-11.042969-66.25 16.242188 43.199219c4.640624 12.5625 16.558593 20.800781 29.917968 20.800781h-6.15625v16zm0 0" fill="#fdcf00"/><path d="m352 224-11.039062 66.25c-2.863282 17.167969-17.714844 29.75-35.117188 29.75 3.839844-4.238281 6.15625-9.839844 6.15625-16v-16h-6.15625c13.359375 0 25.277344-8.238281 29.917969-20.796875zm0 0" fill="#fdcf00"/><path d="m416 176-16 48h-47.996094l31.996094-48c0-15.519531-6.238281-29.4375-16.398438-39.597656-10.160156-10.160156-24.078124-16.398438-39.597656-16.398438l-56 8v-16l56-24h-56v-17.761718l56-6.242188 72 24.003906zm0 0" fill="#fdcf00"/><path d="m216.003906 152c0 13.257812-10.746094 24.003906-24.003906 24.003906-13.253906 0-24-10.746094-24-24.003906 0-13.253906 10.746094-24 24-24 13.257812 0 24.003906 10.746094 24.003906 24zm0 0" fill="#fff"/><path d="m352 224-16.238281 43.199219c-4.640625 12.5625-16.558594 20.800781-29.921875 20.800781h-33.839844c-8.796875 0-16-7.199219-16-16v-8h16v-16l24-16v-24zm0 0" fill="#f7efcd"/><path d="m304 176 48 48 32-48c0-30.925781-25.070312-56-56-56l-56 32v24zm0 0" fill="#f7efcd"/><path d="m368 8-40 56-72-24h64zm0 0" fill="#ddb305"/><path d="m344 152c0 13.257812-10.742188 24.003906-24 24.003906-13.253906 0-24-10.746094-24-24.003906 0-13.253906 10.746094-24 24-24 13.257812 0 24 10.746094 24 24zm0 0" fill="#fff"/><path d="m240 176-23.996094 32-56.003906 16 48-48zm0 0" fill="#fdcf00"/><path d="m272 176 24 32 56 16-48-48zm0 0" fill="#fdcf00"/><path d="m312 288v16c0 6.160156-2.316406 11.761719-6.15625 16-.242188.320312-.5625.640625-.882812.960938-4.316407 4.320312-10.320313 7.039062-16.957032 7.039062v-40zm0 0" fill="#fff"/><path d="m224 288v40.003906c-6.636719 0-12.640625-2.722656-16.957031-7.042968-.320313-.320313-.640625-.636719-.882813-.957032-3.839844-4.242187-6.15625-9.839844-6.15625-16v-16h23.996094zm0 0" fill="#fff"/><path d="m440 224 8 56h-32l-8 32h-40l-32 56h-24l-56 24-56-24h-24l-32-56h-40l-8-32h-31.996094l8-56-16-24 40-24 8 48h56l11.042969 66.25c2.859375 17.167969 17.710937 29.75 35.117187 29.75.238282.320312.558594.640625.878907.960938 4.320312 4.320312 10.320312 7.039062 16.960937 7.039062v-32c0 13.28125 10.71875 24 24 24h16c6.640625 0 12.640625-2.71875 16.957032-7.039062 4.320312-4.320313 7.042968-10.320313 7.042968-16.960938v32c6.636719 0 12.640625-2.71875 16.957032-7.039062.320312-.320313.640624-.640626.882812-.960938 17.402344 0 32.253906-12.582031 35.117188-29.75l11.039062-66.25h48l16-48 40 24zm0 0" fill="#f7efcd"/><path d="m312 304v16c0 17.679688-14.316406 32-32 32h-47.996094c-17.683594 0-32-14.320312-32-32v-16c0 6.160156 2.316406 11.761719 6.15625 16 .242188.320312.5625.640625.882813.960938 4.316406 4.320312 10.320312 7.039062 16.957031 7.039062v-32c0 13.28125 10.722656 24 24.003906 24h15.996094c6.640625 0 12.640625-2.71875 16.960938-7.039062 4.320312-4.320313 7.039062-10.320313 7.039062-16.957032v32c6.640625 0 12.640625-2.722656 16.960938-7.042968.320312-.320313.640624-.636719.878906-.957032 3.839844-4.242187 6.160156-9.84375 6.160156-16.003906zm0 0" fill="#fdcf00"/><g fill="#685b53"><path d="m272 112v16l56-7.996094-56 31.996094h-32l-56-31.996094 56 7.996094v-16l-56-23.996094h56v-17.761718l-56-6.242188 72-24 72 24-56 6.242188v17.761718h56zm0 0"/><path d="m112.003906 88.003906 23.996094 23.996094-32 16zm0 0"/><path d="m128 176h-31.996094l7.996094-48zm0 0"/><path d="m400 88.003906-24 23.996094 32 16zm0 0"/><path d="m384 176h32l-8-48zm0 0"/><path d="m391.992188 256c-3.84375 0-7.234376-2.773438-7.882813-6.683594-.726563-4.359375 2.21875-8.480468 6.578125-9.207031l96-16c4.375-.742187 8.484375 2.222656 9.203125 6.574219.726563 4.359375-2.21875 8.480468-6.578125 9.207031l-96 16c-.445312.074219-.882812.109375-1.320312.109375zm0 0"/><path d="m504 288h-112c-4.421875 0-8-3.578125-8-8 0-4.417969 3.578125-8 8-8h112c4.421875 0 8 3.582031 8 8 0 4.421875-3.578125 8-8 8zm0 0"/><path d="m488.007812 336c-.636718 0-1.292968-.074219-1.945312-.238281l-95.996094-24c-4.289062-1.070313-6.898437-5.414063-5.820312-9.703125 1.070312-4.285156 5.40625-6.910156 9.691406-5.820313l96 24.003907c4.289062 1.070312 6.898438 5.410156 5.820312 9.699218-.90625 3.632813-4.164062 6.058594-7.75 6.058594zm0 0"/><path d="m120.007812 256c-.4375 0-.875-.035156-1.320312-.109375l-96-16c-4.359375-.722656-7.304688-4.847656-6.578125-9.207031.71875-4.359375 4.855469-7.320313 9.203125-6.574219l96 16c4.359375.726563 7.304688 4.847656 6.578125 9.207031-.644531 3.910156-4.039063 6.683594-7.882813 6.683594zm0 0"/><path d="m120 288h-112c-4.417969 0-8-3.578125-8-8 0-4.417969 3.578125-8 8-8h112c4.421875 0 8 3.582031 8 8 0 4.421875-3.574219 8-8 8zm0 0"/><path d="m23.996094 336c-3.585938 0-6.847656-2.421875-7.753906-6.058594-1.078126-4.289062 1.53125-8.632812 5.820312-9.699218l96-24.003907c4.257812-1.082031 8.625 1.535157 9.695312 5.820313 1.078126 4.289062-1.53125 8.632812-5.820312 9.703125l-95.996094 24c-.652344.164062-1.308594.238281-1.945312.238281zm0 0"/></g><path d="m352 448 16 32v24h-64l-16-40 8-48-40 24-39.996094-24 7.996094 48-16 40h-64v-24l16-32-32-64v-72h16l32 56h24l56 24 56-24h24l32-56h16v72zm0 0" fill="#fdcf00"/><path d="m104 464 8.003906 24v16h-56.003906v-24l8.003906-16 16-48v-64l47.996094-40v72l32 64-40-8zm0 0" fill="#ddb305"/><path d="m216.003906 416 7.996094 48 24.003906 8h15.996094l24-8 8-48-40 24zm0 0" fill="#f7efcd"/><path d="m120 448c-4.421875 0-8-3.582031-8-8v-24c0-4.417969 3.578125-8 8-8 4.425781 0 8 3.582031 8 8v24c0 4.417969-3.574219 8-8 8zm0 0" fill="#ad8c00"/><path d="m24 352c8.839844 0 16 7.164062 16 16s7.164062 16 16 16h24.003906v32h-24.003906c-26.507812 0-48-21.488281-48-48 0-8.835938 7.164062-16 16-16zm0 0" fill="#fdcf00"/><path d="m128 384 64 24-48 8zm0 0" fill="#685b53"/><path d="m384 384-64 24 48 8zm0 0" fill="#685b53"/><path d="m80.003906 352 47.996094 16-47.996094 16zm0 0" fill="#685b53"/><path d="m80.003906 416 23.996094 32-39.996094 16zm0 0" fill="#685b53"/><path d="m352 448-32 16 48 16zm0 0" fill="#685b53"/><path d="m160 448 32 16-48 16zm0 0" fill="#685b53"/><path d="m208 160c0 8.835938-7.160156 16-16 16-8.835938 0-16-7.164062-16-16s7.164062-16 16-16c8.839844 0 16 7.164062 16 16zm0 0" fill="#493c35"/><path d="m192 152c0 4.421875-3.582031 8.003906-8 8.003906s-8-3.582031-8-8.003906c0-4.417969 3.582031-8 8-8s8 3.582031 8 8zm0 0" fill="#fff"/><path d="m200 172c0 2.210938-1.789062 4-4 4-2.207031 0-4-1.789062-4-4 0-2.207031 1.792969-4 4-4 2.210938 0 4 1.792969 4 4zm0 0" fill="#fff"/><path d="m336 160c0 8.835938-7.164062 16-16 16s-16-7.164062-16-16 7.164062-16 16-16 16 7.164062 16 16zm0 0" fill="#493c35"/><path d="m320.003906 152c0 4.421875-3.582031 8.003906-8.003906 8.003906-4.417969 0-8-3.582031-8-8.003906 0-4.417969 3.582031-8 8-8 4.421875 0 8.003906 3.582031 8.003906 8zm0 0" fill="#fff"/><path d="m328 172c0 2.210938-1.789062 4-4 4-2.207031 0-3.996094-1.789062-3.996094-4 0-2.207031 1.789063-4 3.996094-4 2.210938 0 4 1.792969 4 4zm0 0" fill="#fff"/><path d="m504 272h-49.058594l-3.683594-25.765625 38.054688-6.34375c4.359375-.722656 7.304688-4.847656 6.578125-9.207031-.71875-4.351563-4.828125-7.316406-9.203125-6.574219l-37.691406 6.285156-.644532-4.5 14.304688-21.457031c1.210938-1.820312 1.625-4.058594 1.148438-6.191406-.476563-2.132813-1.8125-3.980469-3.6875-5.105469l-36.832032-22.097656-7.394531-44.355469c-.003906-.042969-.03125-.078125-.039063-.117188-.007812-.046874.003907-.09375-.007812-.136718l-8-40.003906c-.066406-.332032-.21875-.625-.324219-.945313-.117187-.34375-.199219-.707031-.359375-1.027344-.140625-.285156-.34375-.519531-.511718-.78125-.21875-.335937-.414063-.683593-.675782-.980469-.207031-.234374-.464844-.410156-.699218-.617187-.292969-.261719-.570313-.546875-.90625-.765625-.273438-.179688-.589844-.289062-.886719-.433594-.316407-.15625-.609375-.351562-.949219-.46875l-9.589844-3.195312 6.816406-27.269532c.515626-2.0625.199219-4.238281-.898437-6.0625l-24-40c-.261719-.4375-.597656-.816406-.9375-1.191406-.066406-.078125-.097656-.179687-.171875-.257812-.015625-.019532-.042969-.027344-.0625-.046875-.582031-.585938-1.257812-1.050781-1.984375-1.433594-.214844-.113281-.429687-.191406-.652344-.285156-.5625-.234375-1.148437-.398438-1.761719-.5-.226562-.035157-.4375-.089844-.664062-.1093752-.105469-.0078126-.199219-.046875-.304688-.0507813-.691406-.0195313-1.375.0546875-2.042968.2031255-.207032.046874-.394532.144531-.597656.207031-.605469.183593-1.175782.433593-1.71875.753906-.128907.074219-.273438.089844-.398438.171875l-45.984375 30.65625h-123.15625l-45.984375-30.65625c-.042969-.027344-.097656-.03125-.144531-.0625-1.316407-.859375-2.859375-1.3554688-4.613281-1.2734375-.109376.0039063-.210938.0429687-.316407.0546875-.207031.015625-.398437.066406-.601562.097656-.644531.101563-1.257813.277344-1.847657.523438-.199218.085937-.394531.15625-.589843.257812-.734375.382813-1.417969.851563-2.007813 1.445313-.019531.019531-.046875.027343-.0625.046875-.074218.074218-.101562.175781-.171875.253906-.339843.378906-.675781.753906-.941406 1.195312l-24 40c-1.09375 1.820313-1.414063 4-.898437 6.058594l6.820312 27.273438-9.59375 3.195312c-.339844.113282-.628906.3125-.945312.464844-.296876.148438-.613282.257812-.886719.4375-.335938.21875-.613281.503906-.910157.765625-.230468.207031-.488281.382813-.695312.613281-.261719.296875-.457031.648438-.675781.980469-.167969.265625-.371094.5-.511719.78125-.160156.324219-.242188.6875-.359375 1.03125-.105469.320313-.257813.613281-.328125.945313l-8 40c-.007812.046874.003906.09375-.007812.136718-.007813.042969-.03125.078125-.039063.117188l-7.390625 44.359375-36.835938 22.097656c-1.875 1.125-3.207031 2.96875-3.6875 5.105469-.472656 2.132812-.0625 4.371094 1.148438 6.191406l14.304688 21.457031-.640626 4.496094-37.691406-6.28125c-4.351562-.746094-8.484375 2.214844-9.203125 6.574219-.726562 4.359375 2.21875 8.480468 6.578125 9.207031l38.050782 6.34375-3.679688 25.765625h-49.0625c-4.417969 0-8 3.582031-8 8 0 4.421875 3.578125 8 8 8h81.753906l3.605469 14.414062-71.292969 17.824219c-4.289062 1.070313-6.898437 5.414063-5.820312 9.703125.90625 3.632813 4.164062 6.058594 7.75 6.058594.640625 0 1.296875-.074219 1.945312-.238281l72.519532-18.128907c1.457031 1.433594 3.382812 2.367188 5.542968 2.367188h1.898438l-31.027344 25.855469c-.074219.0625-.101562.164062-.171875.226562-.785156.703125-1.4375 1.519531-1.890625 2.453125-.042969.089844-.0625.179688-.101562.273438-.4375 1-.710938 2.074218-.710938 3.191406v24.003906h-16c-4.414062 0-8-3.589844-8-8.003906 0-13.234375-10.765625-24-24-24s-24 10.765625-24 24c0 30.878906 25.125 56 56 56h12.902344l-12.308594 36.933594-7.75 15.492187c-.554688 1.109375-.84375 2.335938-.84375 3.578125v24c0 4.417969 3.578125 8 8 8h56.003906c4.417969 0 8-3.582031 8-8v-16c0-.859375-.140625-1.714844-.414062-2.53125l-6.757813-20.285156 10.855469-16.289062 24.472656 4.894531-11.316406 22.632812c-.507812 1.011719-.699219 2.101563-.75 3.191407-.007812.132812-.09375.25-.09375.386718v24c0 4.417969 3.578125 8 8 8h64c3.273438 0 6.210938-1.992187 7.429688-5.027344l13.199218-32.996093 16.839844 5.613281c.824219.273438 1.671875.410156 2.535156.410156h15.996094c.863281 0 1.710938-.136718 2.535156-.410156l16.839844-5.613281 13.199219 32.996093c1.214843 3.035157 4.15625 5.027344 7.429687 5.027344h64c4.417969 0 8-3.582031 8-8v-24c0-.136718-.085937-.253906-.09375-.386718-.050781-1.089844-.246094-2.175782-.753906-3.191407l-14.210938-28.421875 30.210938-60.421875c.507812-1.015625.699219-2.101562.753906-3.191406.007813-.132813.089844-.253906.089844-.386719v-64h16c2.160156 0 4.085938-.933594 5.542969-2.371094l72.519531 18.132813c.648438.164063 1.304688.238281 1.945312.238281 3.585938 0 6.84375-2.425781 7.75-6.058594 1.078126-4.289062-1.53125-8.632812-5.820312-9.703124l-71.292969-17.824219 3.605469-14.414063h81.753906c4.417969 0 8-3.582031 8-8 0-4.417968-3.582031-8.003906-8.003906-8.003906zm-172.492188 22.429688c-.210937.542968-.480468 1.042968-.722656 1.566406-.550781 1.1875-1.164062 2.335937-1.867187 3.421875-.34375.523437-.695313 1.039062-1.070313 1.539062-.785156 1.042969-1.648437 2.011719-2.566406 2.929688-.378906.378906-.734375.785156-1.132812 1.144531-1.285157 1.136719-2.667969 2.164062-4.144532 3.046875v-14.691406c.394532-.152344.738282-.40625 1.132813-.570313 1.753906-.734375 3.441406-1.585937 5.070312-2.558594.546875-.324218 1.109375-.613281 1.640625-.96875 2.035156-1.347656 3.957032-2.851562 5.71875-4.546874.070313-.070313.160156-.117188.234375-.1875l-.726562 4.378906c-.324219 1.921875-.886719 3.746094-1.566407 5.496094zm-31.90625 39.40625c-4.351562 6.144531-11.515624 10.167968-19.601562 10.167968h-48c-8.085938 0-15.25-4.023437-19.601562-10.167968.03125.015624.066406.019531.101562.03125 1.140625.441406 2.34375.703124 3.53125 1.007812.621094.160156 1.214844.40625 1.847656.527344.078125.015625.152344.042968.230469.054687 1.925781.359375 3.894531.542969 5.890625.542969 4.421875 0 8.003906-3.582031 8.003906-8v-4.292969c1.082032.628907 2.214844 1.179688 3.371094 1.679688.078125.03125.148438.078125.226562.109375 1.691407.714844 3.476563 1.234375 5.304688 1.652344.449219.101562.898438.191406 1.351562.273437 1.871094.339844 3.777344.582031 5.746094.582031h16c1.898438 0 3.757813-.226562 5.59375-.550781.457032-.078125.90625-.167969 1.355469-.269531 1.800781-.398438 3.570313-.894532 5.265625-1.597656.007812-.003907.019531-.003907.03125-.007813 1.289062-.535156 2.542969-1.152344 3.753906-1.855469v4.28125c0 4.414063 3.578125 8 8 8 2 0 3.96875-.1875 5.890625-.546875.078125-.011719.152344-.039062.230469-.054687.632812-.121094 1.226562-.367188 1.847656-.527344 1.1875-.304688 2.390625-.566406 3.535156-1.007812.027344-.011719.0625-.015626.09375-.03125zm-115.445312-32.878907c-.375-.5-.730469-1.015625-1.070312-1.542969-.703126-1.082031-1.316407-2.230468-1.867188-3.414062-.242188-.523438-.515625-1.027344-.722656-1.570312-.683594-1.75-1.242188-3.574219-1.566406-5.496094l-.730469-4.382813c.078125.074219.171875.125.25.199219 1.753906 1.691406 3.671875 3.1875 5.699219 4.535156.539062.355469 1.105468.648438 1.660156.980469 1.621094.964844 3.300781 1.8125 5.046875 2.546875.398437.164062.742187.421875 1.144531.574219v14.691406c-1.476562-.882813-2.859375-1.910156-4.144531-3.046875-.402344-.359375-.753907-.765625-1.132813-1.144531-.917968-.917969-1.78125-1.886719-2.566406-2.929688zm-67.015625-196.503906 5.351563 5.355469-6.960938 3.484375zm289.277344 63.546875h-9.46875l6.945312-13.886719zm-9.949219-54.707031-6.960938-3.480469 5.355469-5.359375zm-28.367188-.011719c.414063 2.539062 2.023438 4.726562 4.320313 5.875l24.84375 12.421875-10.042969 20.085937c-3.175781-7.730468-7.875-14.832031-13.964844-20.921874-8.960937-8.953126-20.109374-14.910157-32.238281-17.402344-.050781-.011719-.097656-.027344-.148437-.039063-1.792969-.363281-3.617188-.625-5.453125-.835937-.316407-.035156-.617188-.105469-.929688-.136719-2.144531-.214844-4.304687-.328125-6.488281-.328125-.375 0-.757812.027344-1.132812.082031l-46.867188 6.695313v-1.503906l51.148438-21.921876c3.492187-1.496093 5.453124-5.238281 4.691406-8.960937-.765625-3.71875-4.039063-6.390625-7.839844-6.390625h-48v-2.601562l47.140625-5.253907 58.054687 19.351563-14.851562 14.847656c-1.820312 1.816406-2.65625 4.398438-2.242188 6.9375zm-17.34375 98.160156-27.746093-27.742187c16.21875-1.546875 28.992187-15.082031 28.992187-31.699219 0-8.105469-3.128906-15.4375-8.121094-21.082031 1.09375.386719 2.242188.652343 3.296876 1.113281 1.179687.515625 2.261718 1.226562 3.394531 1.835938 1.511719.8125 3.074219 1.546874 4.484375 2.511718 1.230468.847656 2.328125 1.910156 3.484375 2.875 5.4375 4.527344 9.957031 10.105469 12.972656 16.589844.070313.148438.175781.28125.242187.433594 1.074219 2.375 1.886719 4.882812 2.566407 7.441406.085937.332031.246093.640625.328125.976562.703125 2.898438 1.144531 5.894532 1.292968 8.96875zm-94.757812 44.558594h-8v-8c0-2.675781-1.335938-5.171875-3.5625-6.65625l-17.34375-11.5625 7.125-10.683594 17.34375 11.558594c2.6875 1.789062 6.1875 1.789062 8.875 0l17.34375-11.558594 7.125 10.683594-17.34375 11.5625c-2.226562 1.484375-3.5625 3.980469-3.5625 6.65625v8zm-119.941406-82.335938c.148437-3.074218.589844-6.070312 1.292968-8.964843.082032-.351563.25-.675781.34375-1.027344.679688-2.542969 1.484376-5.035156 2.550782-7.390625.066406-.15625.175781-.289062.242187-.441406 3.019531-6.484375 7.535157-12.058594 12.96875-16.585938 1.160157-.964844 2.253907-2.027344 3.488281-2.875 1.410157-.964844 2.96875-1.699218 4.480469-2.511718 1.136719-.609376 2.21875-1.320313 3.394531-1.835938 1.058594-.460938 2.203126-.726562 3.296876-1.113281-4.988282 5.644531-8.117188 12.976562-8.117188 21.085937 0 16.613282 12.769531 30.152344 28.992188 31.695313l-27.75 27.746093zm55.941406-37.664062c2.09375 0 4.082031.433594 5.914062 1.164062l3.640626 2.082032c3.890624 2.921875 6.445312 7.527344 6.445312 12.753906 0 8.824219-7.179688 16-16 16s-16-7.175781-16-16 7.179688-16 16-16zm40.003906 32h-12.453125c2.746094-4.707031 4.433594-10.101562 4.445313-15.929688l8.007812 4.574219zm-20.691406 16h12.6875l-.707031.949219-12.078125 16.097656-23.726563 6.78125zm68.6875-27.355469 8.007812-4.578125c.011719 5.828125 1.699219 11.226563 4.445313 15.933594h-12.453125zm20.789062 44.402344-12.078124-16.097656-.707032-.949219h12.6875l23.824219 23.828125zm3.210938-49.046875c0-5.226562 2.558594-9.832031 6.445312-12.753906l3.644532-2.082032c1.832031-.730468 3.820312-1.160156 5.910156-1.160156 8.820312 0 16 7.175782 16 16 0 8.824219-7.179688 16-16 16s-16-7.179687-16-16.003906zm-40 24c0 .109375.050781.210938.054688.320312.019531.550782.128906 1.085938.261718 1.621094.0625.242188.085938.488282.167969.726563.039063.109375.078125.214843.121094.324219.066406.171874.179687.304687.257812.472656.222657.457031.425781.921875.738281 1.335937l14.398438 19.199219h-.007812c-.320313 0-.632813.101562-.949219.140625-.285157.03125-.558594.054687-.839844.121094-.914063.210937-1.8125.53125-2.640625 1.082031l-19.5625 13.042969-19.5625-13.042969c-.828125-.550781-1.726562-.871094-2.640625-1.082031-.285156-.066407-.554687-.089844-.839844-.121094-.316406-.039063-.632812-.140625-.949219-.140625h-.007812l14.398438-19.199219c.3125-.414062.515624-.878906.738281-1.335937.078125-.164063.191406-.300782.257812-.472656.046875-.109376.082031-.214844.121094-.324219.085937-.238281.109375-.480469.167969-.722657.136718-.535156.242187-1.070312.265625-1.625.003906-.109374.050781-.210937.050781-.320312v-16h16zm-93.457031 53.308594 37.460937-10.703125v13.394531c0 .417969.085938.816406.148438 1.21875.027344.167969.027344.332031.0625.496094.046875.199218.101562.386718.160156.582031.070312.226563.164062.433594.253906.652344.167969.421875.355469.824219.589844 1.210937.082031.132813.15625.261719.246094.390625.105468.152344.222656.292969.339844.441407.367187.457031.792968.859374 1.257812 1.230468.140625.113282.257812.246094.40625.351563.035156.023437.058594.058593.09375.082031l20.441406 13.625v11.71875c0 4.417969 3.574219 8 8 8h8c0 4.410156-3.585937 8.003906-8 8.003906h-33.84375c-10.117187 0-18.914062-6.113281-22.429687-15.617187zm45.460937 88.53125c-1.191406-.6875-2.296875-1.554688-3.332031-2.5625l-.574219-.644532c-2.644531-2.910156-4.097656-6.691406-4.097656-10.632812v-8h8.003906zm23.996094-21.839844c1.601562 0 3.15625-.171875 4.667969-.46875.515625-.101562.992187-.296875 1.496093-.429688.96875-.261718 1.941407-.515624 2.859376-.890624.566406-.230469 1.082031-.539063 1.625-.8125.800781-.398438 1.597656-.789063 2.339843-1.273438.535157-.34375 1.015625-.746094 1.515625-1.128906.496094-.378906 1.03125-.703125 1.496094-1.121094.464844.414062 1.003906.738281 1.496094 1.117188.503906.386718.984375.789062 1.515625 1.136718.746093.480469 1.542969.871094 2.34375 1.269532.542969.273437 1.054687.582031 1.621093.8125.917969.375 1.890626.628906 2.859376.890624.503906.132813.984374.328126 1.5.429688 1.511718.300781 3.066406.472656 4.664062.472656h8c0 4.261719-1.664062 8.277344-4.695312 11.304688s-7.046876 4.695312-11.304688 4.695312h-16c-8.820312 0-16-7.179687-16-16h8zm56 0h8.003906v8c0 3.941406-1.453125 7.722656-4.097656 10.632812-.15625.175782-.460938.488282-.597656.671876-1 1-2.109375 1.859374-3.308594 2.546874zm9.84375-16h-33.839844c-4.414062 0-8.003906-3.589844-8.003906-8h8.003906c4.417969 0 8-3.582031 8-8v-11.71875l20.4375-13.625c.035156-.023438.058594-.058594.09375-.082031.152344-.105469.269532-.238281.410156-.355469.464844-.367188.890626-.773438 1.257813-1.230469.117187-.144531.230469-.285156.339844-.441406.089843-.128906.160156-.253906.242187-.386719.238282-.386718.421875-.789062.589844-1.207031.089844-.222656.1875-.429687.257812-.660156.054688-.191407.113282-.382813.15625-.578125.039063-.164063.039063-.328125.0625-.496094.0625-.402344.152344-.804688.152344-1.21875v-13.394531l37.460938 10.703125-13.210938 35.117187c-3.496094 9.460938-12.292968 15.574219-22.410156 15.574219zm-14.90625-219.917969-19.820312 2.207031c-4.054688.453126-7.117188 3.875-7.117188 7.949219v17.761719c0 4.417969 3.578125 8 8.003906 8h17.023438l-20.171875 8.648438c-2.945313 1.257812-4.851563 4.152343-4.851563 7.351562v16c0 2.320312 1.007813 4.523438 2.757813 6.042969s4.078125 2.203125 6.375 1.875l14.503906-2.070313-17.765625 10.152344h-27.75l-17.765625-10.152344 14.507813 2.070313c2.28125.328125 4.632812-.355469 6.375-1.875 1.75-1.519531 2.757812-3.722657 2.757812-6.042969v-16c0-3.199219-1.90625-6.09375-4.851562-7.351562l-20.171876-8.648438h17.023438c4.421875 0 8-3.582031 8-8v-17.761719c0-4.074219-3.0625-7.496093-7.117188-7.949219l-19.816406-2.207031 34.933594-11.648437zm-106.078125 12.0625 47.140625 5.253907v2.601562h-48c-3.796875 0-7.070312 2.671875-7.835938 6.390625-.765624 3.726563 1.195313 7.46875 4.6875 8.964844l51.148438 21.921875v1.503906l-46.867188-6.695312c-.375-.054688-.757812-.082032-1.132812-.082032-2.179688 0-4.34375.113282-6.484375.328125-.316406.03125-.617187.101563-.933594.136719-1.832031.210938-3.65625.46875-5.449219.835938-.058593.007812-.109374.027343-.167968.039062-12.117188 2.496094-23.265625 8.449219-32.222656 17.402344-6.085938 6.085937-10.789063 13.191406-13.964844 20.921875l-10.042969-20.085938 24.84375-12.421875c2.296875-1.152344 3.90625-3.335937 4.320313-5.875.414062-2.539062-.421876-5.121094-2.242188-6.9375l-14.847656-14.847656zm-76.75 81.96875 6.945313 13.886719h-9.46875zm-2.664063 29.886719h18.277344l21.332032 32h-34.277344zm282.835938 0h16.625l-10.667969 32h-27.289062zm-10.039062-113.964844-37.140626-10.613281 19.734376-27.632813 6.582031-9.207031 16.019531 26.691407zm-58.242188-22.035156c1.578125 0 3.125-.464844 4.4375-1.339844l11.679688-7.789062-11.191407 15.671875-19.625-6.539063h14.699219zm-132.4375-1.339844c1.3125.875 2.859375 1.339844 4.4375 1.339844h14.699219l-19.621094 6.542969-11.195313-15.675781zm-42.976562-24.078125 6.578124 9.207031 19.734376 27.632813-37.140626 10.613281-5.195312-20.761718zm18.484374 437.175781.507813-1.023437 7.570313 3.785156-11.355469 3.785157zm-80.3125-26.742187 8.578126 11.433594-14.289063 5.722656zm5.242188-69.917969 14.703125 4.902344-14.703125 4.902344zm8.15625-14.144531 23.84375-19.871094v27.820313zm48.714844 50.902344-.605469-1.210938 16.984375 6.371094-12.734375 2.121094zm-128.871094-31.855469c0-4.410156 3.585938-8 8-8 4.417969 0 8.003906 3.589844 8.003906 8 0 13.234375 10.765625 24 24 24h16v16h-16.003906c-22.054688 0-40-17.945312-40-40zm88 128h-39.996094v-14.113281l5.792969-11.585938 27.804687-11.121093-.257812.382812c-1.367188 2.054688-1.710938 4.625-.925781 6.96875l7.585937 22.765625v6.703125zm5.261719-54.3125-21.261719-28.351562v-23.566407l32-10.667969v4.898438c0 .136719.085938.253906.09375.390625.050781 1.085937.246094 2.171875.75 3.1875l16 32 8.6875 17.371094-17.53125-3.507813v-17.441406c0-4.417969-3.578125-8-8-8s-8 3.582031-8 8v21.578125zm153.441406 22.3125h-13.40625l-18.195313-6.066406-4.359374-26.160156 25.140624 15.085937c2.53125 1.523437 5.703126 1.523437 8.234376 0l25.140624-15.085937-4.359374 26.160156zm85.71875-5.265625.511719 1.023437 3.277344 6.546876-11.359376-3.785157zm15.0625-51.597656-12.730469-2.121094 16.980469-6.367187-.605469 1.207031zm12.515625-28.683594-58.8125 22.054687c-3.378906 1.273438-5.496094 4.660157-5.148438 8.265626.351563 3.601562 3.078126 6.523437 6.648438 7.117187l37.3125 6.21875-9.960938 19.929687-29.617187 14.804688c-2.890625 1.449219-4.632813 4.496094-4.398437 7.722656.226562 3.226563 2.375 6 5.445312 7.023438l42.53125 14.179687v10.234375h-50.585938l-13.152343-32.894531 7.628906-45.789063c.515625-3.078124-.8125-6.171874-3.390625-7.929687-2.570312-1.75-5.929688-1.855469-8.617188-.246094l-35.882812 21.53125-35.882812-21.53125c-2.6875-1.613281-6.054688-1.511719-8.617188.246094-2.578125 1.757813-3.90625 4.851563-3.390625 7.929687l7.632813 45.789063-13.15625 32.894531h-50.585938v-10.234375l42.53125-14.179687c3.070312-1.023438 5.222656-3.796875 5.445312-7.023438.238282-3.226562-1.503906-6.273437-4.398437-7.722656l-29.613281-14.804688-9.964844-19.929687 37.3125-6.21875c3.570312-.59375 6.296875-3.515625 6.648438-7.117187.351562-3.605469-1.765626-6.992188-5.148438-8.265626l-58.8125-22.054687v-58.453125h3.359375l29.695313 51.96875c1.421874 2.492188 4.078124 4.03125 6.945312 4.03125h22.359375l54.492187 23.351562c2 .867188 4.296876.867188 6.296876 0l54.492187-23.351562h22.359375c2.867188 0 5.523438-1.539062 6.945312-4.03125l29.695313-51.96875h3.359375zm40-106.453125h-24c-4.421875 0-8 3.582031-8 8.003906 0 4.417969 3.578125 8 8 8h13.753906l-2.636718 10.53125-9.179688-2.292968c-4.289062-1.089844-8.625 1.535156-9.695312 5.820312-.164063.652344-.089844 1.292969-.089844 1.941406h-16.152344c-2.867188 0-5.523438 1.539063-6.945312 4.03125l-29.695313 51.96875h-19.359375c-1.085938 0-2.15625.21875-3.148438.648438l-52.851562 22.648437-52.851562-22.648437c-.992188-.429688-2.0625-.648438-3.148438-.648438h-19.359375l-29.695313-51.96875c-1.421874-2.492187-4.078124-4.03125-6.945312-4.03125h-16.152344c0-.648437.074219-1.285156-.089844-1.941406-1.070312-4.285156-5.4375-6.902344-9.695312-5.820312l-9.179688 2.292968-2.636718-10.53125h13.753906c4.421875 0 8-3.582031 8-8 0-4.421875-3.578125-8.003906-8-8.003906h-46.769531l3.304687-23.132812 42.15625 7.027343c.445313.074219.878906.109375 1.320313.109375 3.839843 0 7.234375-2.773437 7.882812-6.683594.726563-4.359374-2.21875-8.480468-6.578125-9.207031l-42.519531-7.089843 1.128906-7.886719c.273438-1.949219-.171875-3.933594-1.265625-5.570313l-11.34375-17.019531 22.726563-13.636719 6.070312 36.410156c.640625 3.855469 3.976563 6.683594 7.890625 6.683594h49.222656l9.925782 59.566406c.429687 2.566407 1.085937 5.039063 1.925781 7.417969.296875.839844.726563 1.597657 1.070313 2.410157.632812 1.492187 1.242187 2.996093 2.027343 4.394531.503907.894531 1.125 1.695312 1.683594 2.546875.792969 1.203125 1.558594 2.421875 2.457031 3.535156.675782.832031 1.445313 1.5625 2.175782 2.339844.941406 1 1.863281 2.011718 2.894531 2.917968.820312.722657 1.710937 1.34375 2.585937 2 1.074219.8125 2.136719 1.621094 3.285156 2.328126.945313.582031 1.9375 1.066406 2.925782 1.578124 1.191406.613282 2.382812 1.21875 3.636718 1.722657.90625.363281 1.828126.667969 2.761719.972656 2.8125 19.324219 19.328125 34.265625 39.421875 34.265625h48c20.089844 0 36.609375-14.941406 39.417969-34.265625.933594-.304687 1.859375-.609375 2.765625-.972656 1.253906-.507813 2.441406-1.109375 3.636719-1.726563.988281-.507812 1.980469-.992187 2.921875-1.574218 1.148437-.710938 2.214844-1.519532 3.289062-2.332032.871094-.65625 1.765625-1.277344 2.585938-2 1.03125-.90625 1.953125-1.917968 2.894531-2.917968.730469-.777344 1.5-1.507813 2.171875-2.335938.902344-1.117188 1.671875-2.335938 2.464844-3.542969.558594-.851562 1.175781-1.648437 1.679687-2.542969.785157-1.402343 1.398438-2.910156 2.03125-4.410156.34375-.804687.769531-1.558594 1.0625-2.390625.839844-2.378906 1.5-4.855469 1.929688-7.421875l9.925781-59.566406h41.222656c3.445313 0 6.5-2.203125 7.585938-5.46875l12.851562-38.539062 24.25 14.550781-11.34375 17.019531c-1.09375 1.636719-1.539062 3.621094-1.265625 5.570312l1.128907 7.890626-42.519532 7.085937c-4.359375.726563-7.304687 4.847656-6.578125 9.207031.648438 3.910156 4.039063 6.683594 7.882813 6.683594.441406 0 .875-.035156 1.320312-.109375l42.15625-7.027344 3.304688 23.136719zm0 0"/><path d="m184.003906 224c0 13.257812-10.746094 24-24.003906 24-13.253906 0-24-10.742188-24-24 0-13.253906 10.746094-24 24-24 13.257812 0 24.003906 10.746094 24.003906 24zm0 0" fill="#fa4c52"/><path d="m376 224c0 13.257812-10.742188 24-24 24-13.253906 0-24-10.742188-24-24 0-13.253906 10.746094-24 24-24 13.257812 0 24 10.746094 24 24zm0 0" fill="#fa4c52"/></svg>